<mxfile host="app.diagrams.net" modified="2021-09-17T11:26:56.145Z" agent="5.0 (Windows NT 10.0; Win64; x64) AppleWebKit/537.36 (KHTML, like Gecko) Chrome/93.0.4577.82 Safari/537.36" etag="b5tdUVnDPkKsrnMBdlBd" version="15.2.9" type="github">
  <diagram id="e2f8UOxBALeGFoRiLz6O" name="Page-1">
    <mxGraphModel dx="1407" dy="311" grid="1" gridSize="10" guides="1" tooltips="1" connect="1" arrows="1" fold="1" page="1" pageScale="1" pageWidth="827" pageHeight="1169" math="0" shadow="0">
      <root>
        <mxCell id="0" />
        <mxCell id="1" parent="0" />
        <mxCell id="zpYSAieVbMIGZObQS8ql-23" value="" style="rounded=1;whiteSpace=wrap;html=1;strokeWidth=2;" vertex="1" parent="1">
          <mxGeometry x="290" y="960" width="120" height="60" as="geometry" />
        </mxCell>
        <mxCell id="zpYSAieVbMIGZObQS8ql-25" value="" style="rounded=1;whiteSpace=wrap;html=1;strokeWidth=2;" vertex="1" parent="1">
          <mxGeometry x="290" y="1109" width="120" height="60" as="geometry" />
        </mxCell>
        <mxCell id="zpYSAieVbMIGZObQS8ql-33" value="" style="whiteSpace=wrap;html=1;aspect=fixed;strokeWidth=2;" vertex="1" parent="1">
          <mxGeometry x="1430" y="260" width="80" height="80" as="geometry" />
        </mxCell>
        <mxCell id="zpYSAieVbMIGZObQS8ql-34" value="" style="whiteSpace=wrap;html=1;aspect=fixed;strokeWidth=2;" vertex="1" parent="1">
          <mxGeometry x="-560" y="270" width="80" height="80" as="geometry" />
        </mxCell>
        <mxCell id="zpYSAieVbMIGZObQS8ql-50" value="" style="ellipse;whiteSpace=wrap;html=1;aspect=fixed;strokeWidth=2;" vertex="1" parent="1">
          <mxGeometry x="-220" y="270" width="130" height="130" as="geometry" />
        </mxCell>
        <mxCell id="zpYSAieVbMIGZObQS8ql-51" value="E" style="ellipse;whiteSpace=wrap;html=1;aspect=fixed;strokeWidth=2;" vertex="1" parent="1">
          <mxGeometry x="-260" y="170" width="60" height="60" as="geometry" />
        </mxCell>
        <mxCell id="zpYSAieVbMIGZObQS8ql-52" value="V" style="ellipse;whiteSpace=wrap;html=1;aspect=fixed;strokeWidth=2;" vertex="1" parent="1">
          <mxGeometry x="-50" y="220" width="60" height="60" as="geometry" />
        </mxCell>
        <mxCell id="zpYSAieVbMIGZObQS8ql-53" value="m" style="ellipse;whiteSpace=wrap;html=1;aspect=fixed;strokeWidth=2;" vertex="1" parent="1">
          <mxGeometry x="-260" y="420" width="60" height="60" as="geometry" />
        </mxCell>
        <mxCell id="zpYSAieVbMIGZObQS8ql-54" value="the kinetic energy of the object" style="ellipse;whiteSpace=wrap;html=1;strokeWidth=2;" vertex="1" parent="1">
          <mxGeometry x="-350" y="60" width="180" height="80" as="geometry" />
        </mxCell>
        <mxCell id="zpYSAieVbMIGZObQS8ql-55" value="the mass of the object" style="ellipse;whiteSpace=wrap;html=1;strokeWidth=2;" vertex="1" parent="1">
          <mxGeometry x="-190" y="540" width="180" height="80" as="geometry" />
        </mxCell>
        <mxCell id="zpYSAieVbMIGZObQS8ql-56" value="the speed of the object" style="ellipse;whiteSpace=wrap;html=1;strokeWidth=2;" vertex="1" parent="1">
          <mxGeometry x="110" y="120" width="180" height="80" as="geometry" />
        </mxCell>
        <mxCell id="zpYSAieVbMIGZObQS8ql-57" value="V" style="ellipse;whiteSpace=wrap;html=1;aspect=fixed;strokeWidth=2;" vertex="1" parent="1">
          <mxGeometry x="250" y="230" width="60" height="60" as="geometry" />
        </mxCell>
        <mxCell id="zpYSAieVbMIGZObQS8ql-58" value="" style="ellipse;whiteSpace=wrap;html=1;aspect=fixed;strokeWidth=2;" vertex="1" parent="1">
          <mxGeometry x="310" y="280" width="130" height="130" as="geometry" />
        </mxCell>
        <mxCell id="zpYSAieVbMIGZObQS8ql-59" value="V&lt;sub&gt;0&lt;/sub&gt;" style="ellipse;whiteSpace=wrap;html=1;aspect=fixed;strokeWidth=2;" vertex="1" parent="1">
          <mxGeometry x="460" y="230" width="60" height="60" as="geometry" />
        </mxCell>
        <mxCell id="zpYSAieVbMIGZObQS8ql-60" value="t" style="ellipse;whiteSpace=wrap;html=1;aspect=fixed;strokeWidth=2;" vertex="1" parent="1">
          <mxGeometry x="440" y="410" width="60" height="60" as="geometry" />
        </mxCell>
        <mxCell id="zpYSAieVbMIGZObQS8ql-61" value="a" style="ellipse;whiteSpace=wrap;html=1;aspect=fixed;strokeWidth=2;" vertex="1" parent="1">
          <mxGeometry x="250" y="410" width="60" height="60" as="geometry" />
        </mxCell>
        <mxCell id="zpYSAieVbMIGZObQS8ql-62" value="the acceleration of the object" style="ellipse;whiteSpace=wrap;html=1;strokeWidth=2;" vertex="1" parent="1">
          <mxGeometry x="90" y="490" width="180" height="80" as="geometry" />
        </mxCell>
        <mxCell id="zpYSAieVbMIGZObQS8ql-63" value="a" style="ellipse;whiteSpace=wrap;html=1;aspect=fixed;strokeWidth=2;" vertex="1" parent="1">
          <mxGeometry x="70" y="600" width="60" height="60" as="geometry" />
        </mxCell>
        <mxCell id="zpYSAieVbMIGZObQS8ql-64" value="" style="ellipse;whiteSpace=wrap;html=1;aspect=fixed;strokeWidth=2;" vertex="1" parent="1">
          <mxGeometry x="170" y="640" width="130" height="130" as="geometry" />
        </mxCell>
        <mxCell id="zpYSAieVbMIGZObQS8ql-65" value="F" style="ellipse;whiteSpace=wrap;html=1;aspect=fixed;strokeWidth=2;" vertex="1" parent="1">
          <mxGeometry x="360" y="675" width="60" height="60" as="geometry" />
        </mxCell>
        <mxCell id="zpYSAieVbMIGZObQS8ql-66" value="m" style="ellipse;whiteSpace=wrap;html=1;aspect=fixed;strokeWidth=2;" vertex="1" parent="1">
          <mxGeometry x="60" y="750" width="60" height="60" as="geometry" />
        </mxCell>
        <mxCell id="zpYSAieVbMIGZObQS8ql-67" value="the initial speed of the object" style="ellipse;whiteSpace=wrap;html=1;strokeWidth=2;" vertex="1" parent="1">
          <mxGeometry x="560" y="180" width="180" height="80" as="geometry" />
        </mxCell>
        <mxCell id="zpYSAieVbMIGZObQS8ql-68" value="the time it takes for the object to stay at the speed V&lt;sub&gt;0&lt;/sub&gt; to V" style="ellipse;whiteSpace=wrap;html=1;strokeWidth=2;" vertex="1" parent="1">
          <mxGeometry x="520" y="450" width="180" height="80" as="geometry" />
        </mxCell>
        <mxCell id="zpYSAieVbMIGZObQS8ql-69" value="force on the object" style="ellipse;whiteSpace=wrap;html=1;strokeWidth=2;" vertex="1" parent="1">
          <mxGeometry x="520" y="700" width="180" height="80" as="geometry" />
        </mxCell>
        <mxCell id="zpYSAieVbMIGZObQS8ql-71" value="" style="endArrow=none;html=1;strokeWidth=2;entryX=0.554;entryY=1.001;entryDx=0;entryDy=0;entryPerimeter=0;" edge="1" parent="1" source="zpYSAieVbMIGZObQS8ql-51" target="zpYSAieVbMIGZObQS8ql-54">
          <mxGeometry width="50" height="50" relative="1" as="geometry">
            <mxPoint x="-110" y="150" as="sourcePoint" />
            <mxPoint x="-60" y="100" as="targetPoint" />
          </mxGeometry>
        </mxCell>
        <mxCell id="zpYSAieVbMIGZObQS8ql-72" value="" style="endArrow=none;html=1;strokeWidth=2;entryX=0;entryY=1;entryDx=0;entryDy=0;" edge="1" parent="1" source="zpYSAieVbMIGZObQS8ql-52" target="zpYSAieVbMIGZObQS8ql-56">
          <mxGeometry width="50" height="50" relative="1" as="geometry">
            <mxPoint x="-229.63889034250724" y="181.5906389905033" as="sourcePoint" />
            <mxPoint x="-240.2800000000002" y="150.08000000000004" as="targetPoint" />
          </mxGeometry>
        </mxCell>
        <mxCell id="zpYSAieVbMIGZObQS8ql-73" value="" style="endArrow=none;html=1;strokeWidth=2;entryX=0.03;entryY=0.704;entryDx=0;entryDy=0;entryPerimeter=0;" edge="1" parent="1" source="zpYSAieVbMIGZObQS8ql-50" target="zpYSAieVbMIGZObQS8ql-52">
          <mxGeometry width="50" height="50" relative="1" as="geometry">
            <mxPoint x="17.931710749799095" y="249.05378903048404" as="sourcePoint" />
            <mxPoint x="146.54728895794324" y="198.36709434821375" as="targetPoint" />
          </mxGeometry>
        </mxCell>
        <mxCell id="zpYSAieVbMIGZObQS8ql-74" value="" style="endArrow=none;html=1;strokeWidth=2;" edge="1" parent="1" source="zpYSAieVbMIGZObQS8ql-50" target="zpYSAieVbMIGZObQS8ql-51">
          <mxGeometry width="50" height="50" relative="1" as="geometry">
            <mxPoint x="-91.32897305058123" y="308.33365485633794" as="sourcePoint" />
            <mxPoint x="-38.20000000000027" y="272.24" as="targetPoint" />
          </mxGeometry>
        </mxCell>
        <mxCell id="zpYSAieVbMIGZObQS8ql-75" value="" style="endArrow=none;html=1;strokeWidth=2;" edge="1" parent="1" source="zpYSAieVbMIGZObQS8ql-53" target="zpYSAieVbMIGZObQS8ql-50">
          <mxGeometry width="50" height="50" relative="1" as="geometry">
            <mxPoint x="-176.47298493131802" y="288.1277640714777" as="sourcePoint" />
            <mxPoint x="-205.4481172049218" y="236.23438025028213" as="targetPoint" />
          </mxGeometry>
        </mxCell>
        <mxCell id="zpYSAieVbMIGZObQS8ql-77" value="" style="endArrow=none;html=1;strokeWidth=2;" edge="1" parent="1" source="zpYSAieVbMIGZObQS8ql-53" target="zpYSAieVbMIGZObQS8ql-55">
          <mxGeometry width="50" height="50" relative="1" as="geometry">
            <mxPoint x="-203.66586974542588" y="434.83661014835866" as="sourcePoint" />
            <mxPoint x="-180.47691602629038" y="399.46456122346103" as="targetPoint" />
          </mxGeometry>
        </mxCell>
        <mxCell id="zpYSAieVbMIGZObQS8ql-78" value="" style="endArrow=none;html=1;strokeWidth=2;" edge="1" parent="1" source="zpYSAieVbMIGZObQS8ql-66" target="zpYSAieVbMIGZObQS8ql-55">
          <mxGeometry width="50" height="50" relative="1" as="geometry">
            <mxPoint x="-198.78679656440363" y="481.21320343559637" as="sourcePoint" />
            <mxPoint x="-126.55246194481015" y="553.4475380551894" as="targetPoint" />
          </mxGeometry>
        </mxCell>
        <mxCell id="zpYSAieVbMIGZObQS8ql-79" value="" style="endArrow=none;html=1;strokeWidth=2;" edge="1" parent="1" source="zpYSAieVbMIGZObQS8ql-64" target="zpYSAieVbMIGZObQS8ql-63">
          <mxGeometry width="50" height="50" relative="1" as="geometry">
            <mxPoint x="79.28572759953659" y="768.2993336757049" as="sourcePoint" />
            <mxPoint x="-55.074869994767596" y="626.8654150055227" as="targetPoint" />
          </mxGeometry>
        </mxCell>
        <mxCell id="zpYSAieVbMIGZObQS8ql-80" value="" style="endArrow=none;html=1;strokeWidth=2;" edge="1" parent="1" source="zpYSAieVbMIGZObQS8ql-66" target="zpYSAieVbMIGZObQS8ql-64">
          <mxGeometry width="50" height="50" relative="1" as="geometry">
            <mxPoint x="188.12776407145475" y="683.5270150686692" as="sourcePoint" />
            <mxPoint x="136.23438025029236" y="654.5518827950839" as="targetPoint" />
          </mxGeometry>
        </mxCell>
        <mxCell id="zpYSAieVbMIGZObQS8ql-81" value="" style="endArrow=none;html=1;strokeWidth=2;" edge="1" parent="1" source="zpYSAieVbMIGZObQS8ql-63" target="zpYSAieVbMIGZObQS8ql-62">
          <mxGeometry width="50" height="50" relative="1" as="geometry">
            <mxPoint x="188.12776407145475" y="683.5270150686692" as="sourcePoint" />
            <mxPoint x="136.23438025029236" y="654.5518827950839" as="targetPoint" />
          </mxGeometry>
        </mxCell>
        <mxCell id="zpYSAieVbMIGZObQS8ql-82" value="" style="endArrow=none;html=1;strokeWidth=2;" edge="1" parent="1" source="zpYSAieVbMIGZObQS8ql-62" target="zpYSAieVbMIGZObQS8ql-61">
          <mxGeometry width="50" height="50" relative="1" as="geometry">
            <mxPoint x="128.69231019576773" y="616.535185073398" as="sourcePoint" />
            <mxPoint x="159.84912991106876" y="577.6885876111637" as="targetPoint" />
          </mxGeometry>
        </mxCell>
        <mxCell id="zpYSAieVbMIGZObQS8ql-83" value="" style="endArrow=none;html=1;strokeWidth=2;" edge="1" parent="1" source="zpYSAieVbMIGZObQS8ql-61" target="zpYSAieVbMIGZObQS8ql-58">
          <mxGeometry width="50" height="50" relative="1" as="geometry">
            <mxPoint x="290" y="440" as="sourcePoint" />
            <mxPoint x="267.642760594269" y="470.0038457840742" as="targetPoint" />
          </mxGeometry>
        </mxCell>
        <mxCell id="zpYSAieVbMIGZObQS8ql-84" value="" style="endArrow=none;html=1;strokeWidth=2;" edge="1" parent="1" source="zpYSAieVbMIGZObQS8ql-58" target="zpYSAieVbMIGZObQS8ql-57">
          <mxGeometry width="50" height="50" relative="1" as="geometry">
            <mxPoint x="311.21320343559637" y="428.7867965644034" as="sourcePoint" />
            <mxPoint x="339.0380592228862" y="400.9619407771138" as="targetPoint" />
          </mxGeometry>
        </mxCell>
        <mxCell id="zpYSAieVbMIGZObQS8ql-85" value="" style="endArrow=none;html=1;strokeWidth=2;" edge="1" parent="1" source="zpYSAieVbMIGZObQS8ql-57" target="zpYSAieVbMIGZObQS8ql-56">
          <mxGeometry width="50" height="50" relative="1" as="geometry">
            <mxPoint x="336.61518344216165" y="311.5959733819391" as="sourcePoint" />
            <mxPoint x="312.4222795605556" y="289.9309151649386" as="targetPoint" />
          </mxGeometry>
        </mxCell>
        <mxCell id="zpYSAieVbMIGZObQS8ql-86" value="" style="endArrow=none;html=1;strokeWidth=2;" edge="1" parent="1" source="zpYSAieVbMIGZObQS8ql-58" target="zpYSAieVbMIGZObQS8ql-59">
          <mxGeometry width="50" height="50" relative="1" as="geometry">
            <mxPoint x="271.30768980423136" y="246.53518507339732" as="sourcePoint" />
            <mxPoint x="240.15087008894443" y="207.688587611181" as="targetPoint" />
          </mxGeometry>
        </mxCell>
        <mxCell id="zpYSAieVbMIGZObQS8ql-87" value="" style="endArrow=none;html=1;strokeWidth=2;" edge="1" parent="1" source="zpYSAieVbMIGZObQS8ql-59" target="zpYSAieVbMIGZObQS8ql-67">
          <mxGeometry width="50" height="50" relative="1" as="geometry">
            <mxPoint x="437.43570214705915" y="316.5877995899448" as="sourcePoint" />
            <mxPoint x="475.8149060758733" y="287.75052765073474" as="targetPoint" />
          </mxGeometry>
        </mxCell>
        <mxCell id="zpYSAieVbMIGZObQS8ql-88" value="" style="endArrow=none;html=1;strokeWidth=2;" edge="1" parent="1" source="zpYSAieVbMIGZObQS8ql-58" target="zpYSAieVbMIGZObQS8ql-60">
          <mxGeometry width="50" height="50" relative="1" as="geometry">
            <mxPoint x="529.1263897844274" y="262.812968754492" as="sourcePoint" />
            <mxPoint x="581.5582016587828" y="249.61044958530442" as="targetPoint" />
          </mxGeometry>
        </mxCell>
        <mxCell id="zpYSAieVbMIGZObQS8ql-89" value="" style="endArrow=none;html=1;strokeWidth=2;" edge="1" parent="1" source="zpYSAieVbMIGZObQS8ql-60" target="zpYSAieVbMIGZObQS8ql-68">
          <mxGeometry width="50" height="50" relative="1" as="geometry">
            <mxPoint x="430.96194077711425" y="400.961940777114" as="sourcePoint" />
            <mxPoint x="458.786796564365" y="428.786796564365" as="targetPoint" />
          </mxGeometry>
        </mxCell>
        <mxCell id="zpYSAieVbMIGZObQS8ql-90" value="" style="endArrow=none;html=1;strokeWidth=2;" edge="1" parent="1" source="zpYSAieVbMIGZObQS8ql-64" target="zpYSAieVbMIGZObQS8ql-65">
          <mxGeometry width="50" height="50" relative="1" as="geometry">
            <mxPoint x="430.96194077711425" y="400.961940777114" as="sourcePoint" />
            <mxPoint x="458.786796564365" y="428.786796564365" as="targetPoint" />
          </mxGeometry>
        </mxCell>
        <mxCell id="zpYSAieVbMIGZObQS8ql-91" value="" style="endArrow=none;html=1;strokeWidth=2;" edge="1" parent="1" source="zpYSAieVbMIGZObQS8ql-65" target="zpYSAieVbMIGZObQS8ql-69">
          <mxGeometry width="50" height="50" relative="1" as="geometry">
            <mxPoint x="310.0000000000018" y="715" as="sourcePoint" />
            <mxPoint x="370.0000000000132" y="715" as="targetPoint" />
          </mxGeometry>
        </mxCell>
        <mxCell id="zpYSAieVbMIGZObQS8ql-92" value="" style="rounded=0;whiteSpace=wrap;html=1;strokeWidth=2;fillColor=none;dashed=1;" vertex="1" parent="1">
          <mxGeometry x="-380" y="850" width="1160" height="770" as="geometry" />
        </mxCell>
        <mxCell id="zpYSAieVbMIGZObQS8ql-93" value="" style="endArrow=classic;html=1;strokeWidth=2;" edge="1" parent="1">
          <mxGeometry width="50" height="50" relative="1" as="geometry">
            <mxPoint x="-270" y="150" as="sourcePoint" />
            <mxPoint x="-260" y="170" as="targetPoint" />
          </mxGeometry>
        </mxCell>
        <mxCell id="zpYSAieVbMIGZObQS8ql-95" value="" style="endArrow=classic;html=1;strokeWidth=2;" edge="1" parent="1">
          <mxGeometry width="50" height="50" relative="1" as="geometry">
            <mxPoint x="-230" y="240" as="sourcePoint" />
            <mxPoint x="-210" y="280" as="targetPoint" />
          </mxGeometry>
        </mxCell>
        <mxCell id="zpYSAieVbMIGZObQS8ql-96" value="" style="endArrow=classic;html=1;strokeWidth=2;" edge="1" parent="1">
          <mxGeometry width="50" height="50" relative="1" as="geometry">
            <mxPoint x="-210" y="380" as="sourcePoint" />
            <mxPoint x="-230" y="410" as="targetPoint" />
          </mxGeometry>
        </mxCell>
        <mxCell id="zpYSAieVbMIGZObQS8ql-97" value="" style="endArrow=classic;html=1;strokeWidth=2;" edge="1" parent="1">
          <mxGeometry width="50" height="50" relative="1" as="geometry">
            <mxPoint x="-100" y="270" as="sourcePoint" />
            <mxPoint x="-70" y="250" as="targetPoint" />
          </mxGeometry>
        </mxCell>
        <mxCell id="zpYSAieVbMIGZObQS8ql-98" value="" style="endArrow=classic;html=1;strokeWidth=2;" edge="1" parent="1">
          <mxGeometry width="50" height="50" relative="1" as="geometry">
            <mxPoint x="10" y="220" as="sourcePoint" />
            <mxPoint x="70" y="190" as="targetPoint" />
          </mxGeometry>
        </mxCell>
        <mxCell id="zpYSAieVbMIGZObQS8ql-99" value="" style="endArrow=classic;html=1;strokeWidth=2;" edge="1" parent="1">
          <mxGeometry width="50" height="50" relative="1" as="geometry">
            <mxPoint x="250" y="200" as="sourcePoint" />
            <mxPoint x="270" y="220" as="targetPoint" />
          </mxGeometry>
        </mxCell>
        <mxCell id="zpYSAieVbMIGZObQS8ql-100" value="" style="endArrow=classic;html=1;strokeWidth=2;" edge="1" parent="1">
          <mxGeometry width="50" height="50" relative="1" as="geometry">
            <mxPoint x="320" y="270" as="sourcePoint" />
            <mxPoint x="340" y="290" as="targetPoint" />
          </mxGeometry>
        </mxCell>
      </root>
    </mxGraphModel>
  </diagram>
</mxfile>
